<svg width="20" height="20" viewBox="0 0 20 20" fill="none" xmlns="http://www.w3.org/2000/svg">
<path d="M19.4355 16.0966L19.4356 16.097L17.9636 19.5831L17.6109 19.2286C17.611 19.2286 17.611 19.2286 17.6109 19.2287C17.6099 19.2295 17.6007 19.2379 17.5785 19.2521C17.5551 19.267 17.5239 19.2842 17.4846 19.303C17.4053 19.3409 17.3099 19.3769 17.2121 19.4086C17.1154 19.4399 17.0242 19.4646 16.9564 19.4813C16.9308 19.4875 16.9094 19.4925 16.8932 19.4961C12.5396 19.5209 8.35167 17.8063 5.27041 14.725C2.18403 11.6386 0.467175 7.43923 0.500476 3.07692C0.50402 3.06276 0.508385 3.04575 0.513538 3.0264C0.530661 2.96209 0.555708 2.87482 0.587345 2.78185C0.619399 2.68764 0.65561 2.59533 0.693736 2.518C0.712607 2.47972 0.729989 2.44913 0.745135 2.42597C0.752565 2.41461 0.758717 2.40618 0.763402 2.40025C0.767586 2.39495 0.769918 2.39252 0.770191 2.39223C0.770209 2.39221 0.770216 2.3922 0.770216 2.3922L0.771287 2.39114L2.19364 0.967486C2.19367 0.967458 2.19369 0.967429 2.19372 0.967401C2.19375 0.967376 2.19377 0.96735 2.1938 0.967325C2.37381 0.787392 2.66312 0.634749 2.99832 0.555682C3.33325 0.476678 3.66064 0.483729 3.90305 0.564198C3.90327 0.564273 3.9035 0.564347 3.90372 0.564422L4.20218 0.664774L4.20339 0.665178C4.45508 0.749084 4.74607 0.944926 5.0008 1.21395C5.25556 1.483 5.43497 1.78398 5.50463 2.03954L6.22106 4.66818C6.2897 4.92049 6.28376 5.26119 6.19376 5.6073C6.10367 5.95376 5.94375 6.25047 5.76186 6.43236L4.81085 7.38337L4.6063 7.58793L4.68168 7.86722C5.66067 11.4944 8.50495 14.3387 12.1327 15.319L12.412 15.3945L12.6166 15.1898L13.5676 14.2389C13.5676 14.2389 13.5676 14.2389 13.5676 14.2389C13.7494 14.0571 14.0464 13.8971 14.3933 13.807C14.7398 13.717 15.0809 13.711 15.3331 13.7797L17.9602 14.4973L17.9611 14.4976C18.2158 14.5666 18.5163 14.7454 18.7856 14.9999C19.0544 15.254 19.251 15.545 19.3363 15.7978C19.3364 15.7981 19.3365 15.7984 19.3366 15.7986L19.4355 16.0966ZM16.9419 19.4957L16.9377 19.4957L16.9419 19.4957Z" stroke="#A6A6A6"/>
</svg>
