<svg width="44" height="44" viewBox="0 0 44 44" fill="none" xmlns="http://www.w3.org/2000/svg">
<path d="M35.75 39.875H8.25C7.49375 39.875 6.875 39.2562 6.875 38.5V5.5C6.875 4.74375 7.49375 4.125 8.25 4.125H28.4625L37.125 12.7875V38.5C37.125 39.2562 36.5063 39.875 35.75 39.875ZM8.25 5.5V38.5H35.75V13.3375L27.9125 5.5H8.25Z" fill="#46AE40"/>
<path d="M36.4375 13.75H28.875C28.1187 13.75 27.5 13.1313 27.5 12.375V4.8125H28.875V12.375H36.4375V13.75Z" fill="#46AE40"/>
<path d="M28.6662 4.31924L27.694 5.2915L35.9582 13.5557L36.9305 12.5835L28.6662 4.31924Z" fill="#46AE40"/>
<path d="M29.5625 19.9375H14.4375C14.025 19.9375 13.75 19.6625 13.75 19.25C13.75 18.8375 14.025 18.5625 14.4375 18.5625H29.5625C29.975 18.5625 30.25 18.8375 30.25 19.25C30.25 19.6625 29.975 19.9375 29.5625 19.9375Z" fill="#46AE40"/>
<path d="M29.5625 17.1875H14.4375C14.025 17.1875 13.75 16.9125 13.75 16.5C13.75 16.0875 14.025 15.8125 14.4375 15.8125H29.5625C29.975 15.8125 30.25 16.0875 30.25 16.5C30.25 16.9125 29.975 17.1875 29.5625 17.1875Z" fill="#46AE40"/>
<path d="M29.5625 22.6875H14.4375C14.025 22.6875 13.75 22.4125 13.75 22C13.75 21.5875 14.025 21.3125 14.4375 21.3125H29.5625C29.975 21.3125 30.25 21.5875 30.25 22C30.25 22.4125 29.975 22.6875 29.5625 22.6875Z" fill="#46AE40"/>
<path d="M29.5625 25.4375H14.4375C14.025 25.4375 13.75 25.1625 13.75 24.75C13.75 24.3375 14.025 24.0625 14.4375 24.0625H29.5625C29.975 24.0625 30.25 24.3375 30.25 24.75C30.25 25.1625 29.975 25.4375 29.5625 25.4375Z" fill="#46AE40"/>
<path d="M29.5625 28.1875H14.4375C14.025 28.1875 13.75 27.9125 13.75 27.5C13.75 27.0875 14.025 26.8125 14.4375 26.8125H29.5625C29.975 26.8125 30.25 27.0875 30.25 27.5C30.25 27.9125 29.975 28.1875 29.5625 28.1875Z" fill="#46AE40"/>
</svg>
