<svg width="38" height="36" viewBox="0 0 38 36" fill="none" xmlns="http://www.w3.org/2000/svg">
<path d="M18.9377 31.6572H6.75269V32.8757H18.9377V31.6572Z" fill="#46AE40"/>
<path d="M1.26928 28.0016H9.18952V28.6109H3.70628C1.69575 28.6109 0.0507812 30.2559 0.0507812 32.2664C0.0507812 34.2769 1.69575 35.9219 3.70628 35.9219H21.9838C23.9943 35.9219 25.6393 34.2769 25.6393 32.2664C25.6393 30.2559 23.9943 28.6109 21.9838 28.6109H16.5005V28.0016H19.5468C20.7348 28.0016 21.6791 27.0573 21.6791 25.8693V22.1224C21.6791 21.4827 21.4964 20.843 21.1917 20.2946L19.5163 17.4007L26.1266 7.16531L34.0774 20.843C34.3515 21.2999 34.778 21.635 35.2959 21.7568C35.4786 21.7873 35.6309 21.8178 35.8137 21.8178C35.8442 21.8178 35.8746 21.8178 35.9051 21.8178V23.219L27.1624 25.1382L26.4008 23.7674L25.3346 24.3766L27.4061 28.093C28.716 30.4386 31.1834 31.8094 33.7423 31.8094C34.3211 31.8094 34.8998 31.7485 35.5091 31.5962C36.4534 31.3525 37.1236 30.4996 37.1236 29.5248V21.3608C37.8242 20.7516 38.007 19.7158 37.5501 18.8934L28.7769 3.05288C29.2338 2.139 28.9597 1.01189 28.1067 0.402642C27.1928 -0.267532 25.9134 -0.0847575 25.2128 0.829116L15.8303 12.7704C15.7694 12.7704 15.678 12.7704 15.6171 12.7704H9.18952V17.3398H5.53402C4.86385 17.3398 4.31553 17.8881 4.31553 18.5583V20.386H1.26928C0.599106 20.386 0.0507812 20.9343 0.0507812 21.6045V26.7831C0.0507812 27.4533 0.599106 28.0016 1.26928 28.0016ZM35.8746 29.5552C35.8746 29.9817 35.6005 30.3472 35.174 30.4386C32.5238 31.1088 29.7517 29.8903 28.4418 27.5142L27.7412 26.2653L35.8746 24.468V29.5552ZM24.4208 32.2664C24.4208 33.6067 23.3241 34.7034 21.9838 34.7034H3.70628C2.36593 34.7034 1.26928 33.6067 1.26928 32.2664C1.26928 30.926 2.36593 29.8294 3.70628 29.8294H21.9838C23.3241 29.8294 24.4208 30.926 24.4208 32.2664ZM15.282 28.6109H10.408V28.0016H15.282V28.6109ZM20.4606 22.1224V23.9197L12.9669 22.4575C12.5404 22.3661 12.2358 22.0005 12.2358 21.5741V13.9889H15.6171C15.9522 13.9889 16.2568 14.1717 16.4091 14.4458L20.1255 20.9039C20.3388 21.2694 20.4606 21.6959 20.4606 22.1224ZM36.1793 20.5383C35.9965 20.6297 35.7833 20.6602 35.6005 20.6297C35.3872 20.5688 35.2349 20.4469 35.1131 20.2642L26.8577 6.0382L28.0153 4.24091L36.4839 19.4721C36.6667 19.8377 36.5448 20.3251 36.1793 20.5383ZM26.1876 1.56022C26.4922 1.19467 27.0101 1.10328 27.4061 1.37744C27.8021 1.6516 27.8935 2.16946 27.6498 2.59594L18.8461 16.2127L17.4753 13.8366C17.3535 13.6234 17.2011 13.4406 17.0184 13.2883L26.1876 1.56022ZM10.408 13.9889H11.0173V21.5741C11.0173 22.6098 11.7484 23.4627 12.7536 23.676L20.4606 25.1382V25.8693C20.4606 26.3871 20.0646 26.7831 19.5468 26.7831H10.408V13.9889ZM5.53402 18.5583H9.18952V20.386H5.53402V18.5583ZM1.26928 21.6045H2.18315V23.7369H3.40165V21.6045H9.18952V26.7831H1.26928V21.6045Z" fill="#46AE40"/>
<path d="M3.70635 33.1803C4.21107 33.1803 4.62023 32.7711 4.62023 32.2664C4.62023 31.7617 4.21107 31.3525 3.70635 31.3525C3.20164 31.3525 2.79248 31.7617 2.79248 32.2664C2.79248 32.7711 3.20164 33.1803 3.70635 33.1803Z" fill="#46AE40"/>
<path d="M21.9839 33.1803C22.4887 33.1803 22.8978 32.7711 22.8978 32.2664C22.8978 31.7617 22.4887 31.3525 21.9839 31.3525C21.4792 31.3525 21.0701 31.7617 21.0701 32.2664C21.0701 32.7711 21.4792 33.1803 21.9839 33.1803Z" fill="#46AE40"/>
</svg>
