<svg width="43" height="43" viewBox="0 0 43 43" fill="none" xmlns="http://www.w3.org/2000/svg">
<g clip-path="url(#clip0_473_2669)">
<path d="M21.4982 0.400696L0 10.5741V17.1394H2.92453V42.5993H4.71622V17.1394H38.2832V42.5993H40.0749V17.1394H43V10.4888L21.4982 0.400696ZM41.2083 15.3477H1.7917V11.7088L21.5018 2.38133L41.2084 11.627V15.3477H41.2083Z" fill="#46AE40"/>
<path d="M20.5031 24.3673H12.3059V32.453H20.5031V24.3673ZM18.7114 30.6614H14.0975V26.159H18.7114V30.6614Z" fill="#46AE40"/>
<path d="M30.6937 24.3673H22.4965V32.453H30.6937V24.3673ZM28.902 30.6614H24.2881V26.159H28.902V30.6614Z" fill="#46AE40"/>
<path d="M7.30493 42.1081H15.5026V34.022H7.30493V42.1081ZM9.09654 35.8137H13.7109V40.3165H9.09654V35.8137Z" fill="#46AE40"/>
<path d="M17.401 42.1081H25.5986V34.022H17.401V42.1081ZM19.1926 35.8137H23.8069V40.3165H19.1926V35.8137Z" fill="#46AE40"/>
<path d="M27.4974 42.1081H35.6946V34.022H27.4974V42.1081ZM29.289 35.8137H33.9029V40.3165H29.289V35.8137Z" fill="#46AE40"/>
<path d="M12.1982 11.5352H7.92859V13.3269H12.1982V11.5352Z" fill="#46AE40"/>
<path d="M23.6345 11.5352H19.3649V13.3269H23.6345V11.5352Z" fill="#46AE40"/>
<path d="M35.0709 11.5352H30.8013V13.3269H35.0709V11.5352Z" fill="#46AE40"/>
</g>
<defs>
<clipPath id="clip0_473_2669">
<rect width="43" height="43" fill="white"/>
</clipPath>
</defs>
</svg>
