<svg width="45" height="45" viewBox="0 0 45 45" fill="none" xmlns="http://www.w3.org/2000/svg">
<path d="M22.5 43.5937C18.3281 43.5937 14.2498 42.3566 10.7809 40.0388C7.3121 37.721 4.60846 34.4266 3.01193 30.5722C1.41539 26.7178 0.997663 22.4766 1.81157 18.3848C2.62548 14.293 4.63446 10.5345 7.58448 7.58446C10.5345 4.63445 14.293 2.62546 18.3848 1.81155C22.4766 0.997648 26.7179 1.41537 30.5722 3.01191C34.4266 4.60845 37.721 7.31209 40.0388 10.7809C42.3566 14.2498 43.5938 18.328 43.5938 22.5C43.5938 28.0944 41.3714 33.4597 37.4155 37.4155C33.4597 41.3714 28.0944 43.5937 22.5 43.5937ZM22.5 4.21874C18.8843 4.21874 15.3498 5.29092 12.3435 7.29969C9.33715 9.30846 6.994 12.1636 5.61034 15.5041C4.22667 18.8445 3.86464 22.5203 4.57003 26.0665C5.27541 29.6127 7.01653 32.8701 9.57321 35.4268C12.1299 37.9835 15.3873 39.7246 18.9335 40.43C22.4797 41.1354 26.1555 40.7733 29.4959 39.3897C32.8364 38.006 35.6915 35.6628 37.7003 32.6565C39.7091 29.6502 40.7813 26.1157 40.7813 22.5C40.7813 17.6515 38.8552 13.0016 35.4268 9.5732C31.9984 6.1448 27.3485 4.21874 22.5 4.21874Z" fill="#46AE40"/>
<path d="M28.4625 30.4594L21.5016 23.4984C21.3713 23.367 21.2681 23.2112 21.1982 23.0399C21.1282 22.8685 21.0927 22.6851 21.0938 22.5V11.25H23.9063V21.9234L30.4594 28.4625L28.4625 30.4594Z" fill="#46AE40"/>
</svg>
