<svg width="36" height="43" viewBox="0 0 36 43" fill="none" xmlns="http://www.w3.org/2000/svg">
<path d="M0 0V43H35.5736V0H0ZM33.7819 41.2083H1.79161V1.7917H33.7819V41.2083Z" fill="#46AE40"/>
<path d="M31.0079 4.36897H4.56506V15.6254H31.0078L31.0079 4.36897ZM29.2162 13.8338H6.35676V6.16067H29.2162V13.8338Z" fill="#46AE40"/>
<path d="M10.4657 19.5719H8.67405V22.4405H5.80542V24.2321H8.67405V27.1007H10.4657V24.2321H13.3343V22.4405H10.4657V19.5719Z" fill="#46AE40"/>
<path d="M13.3343 35.5447H5.80542V37.3364H13.3343V35.5447Z" fill="#46AE40"/>
<path d="M29.7681 35.5447H22.2393V37.3364H29.7681V35.5447Z" fill="#46AE40"/>
<path d="M29.7681 31.4627H22.2393V33.2544H29.7681V31.4627Z" fill="#46AE40"/>
<path d="M22.625 27.028H23.9711L29.3103 19.7379H27.9652L22.625 27.028Z" fill="#46AE40"/>
<path d="M23.934 19.5611C23.0619 19.5611 22.355 20.3126 22.355 21.2397C22.355 22.1668 23.0619 22.9183 23.934 22.9183C24.806 22.9183 25.5129 22.1668 25.5129 21.2397C25.5129 20.3127 24.806 19.5611 23.934 19.5611ZM23.934 21.9801C23.6051 21.9801 23.3385 21.6487 23.3385 21.2397C23.3385 20.8308 23.6051 20.4993 23.934 20.4993C24.2628 20.4993 24.5294 20.8308 24.5294 21.2397C24.5295 21.6486 24.2629 21.9801 23.934 21.9801Z" fill="#46AE40"/>
<path d="M26.5007 25.4478C26.5007 26.3749 27.2077 27.1263 28.0797 27.1263C28.9518 27.1263 29.6587 26.3748 29.6587 25.4478C29.6587 24.5207 28.9517 23.7691 28.0797 23.7691C27.2077 23.7691 26.5007 24.5207 26.5007 25.4478ZM28.6752 25.4478C28.6752 25.8566 28.4086 26.1881 28.0798 26.1881C27.751 26.1881 27.4844 25.8567 27.4844 25.4478C27.4844 25.0388 27.751 24.7074 28.0798 24.7074C28.4086 24.7074 28.6752 25.0389 28.6752 25.4478Z" fill="#46AE40"/>
</svg>
