<svg width="37" height="43" viewBox="0 0 37 43" fill="none" xmlns="http://www.w3.org/2000/svg">
<path d="M35.3724 6.0846C35.3724 6.0846 28.3598 4.84708 26.366 4.15957C23.5482 3.37927 20.9134 2.04725 18.6143 0.240762C18.4615 0.0932064 18.2594 0.00748331 18.0471 0.000134225C17.8173 -0.00388572 17.5951 0.0825283 17.4284 0.240762C15.1516 2.06195 12.5248 3.3958 9.71107 4.15957C7.73448 4.84708 0.859387 6.0846 0.721885 6.0846C0.52146 6.11708 0.339007 6.21947 0.20687 6.37363C0.0747327 6.52779 0.00144588 6.72376 0 6.92679C0 20.8489 0.171877 27.2771 4.43444 33.8256C8.07824 39.4288 17.3252 42.832 17.7206 42.9867C17.8172 43.0044 17.9162 43.0044 18.0128 42.9867H18.3049C18.7003 42.832 28.016 39.4288 31.6598 33.8256C35.9224 27.2771 36.0943 20.8489 36.0943 6.92679C36.0928 6.72376 36.0195 6.52779 35.8874 6.37363C35.7552 6.21947 35.5728 6.11708 35.3724 6.0846ZM30.2161 32.8975C27.2254 37.4866 19.594 40.632 18.0128 41.2507C16.4315 40.632 8.86887 37.4866 5.87821 32.8975C2.0969 27.088 1.73596 21.8973 1.71877 7.64868C4.61186 7.22861 7.48054 6.65488 10.3126 5.92991C13.0839 5.03024 15.6947 3.69587 18.0471 1.97672C20.4258 3.64985 23.0534 4.93755 25.8332 5.7924C28.6653 6.51719 31.534 7.09092 34.427 7.51118C34.3583 21.8286 33.9974 27.0193 30.2161 32.8287V32.8975Z" fill="#46AE40"/>
<path d="M11 23L15 27L25 17" stroke="#46AE40" stroke-width="2" stroke-linecap="round" stroke-linejoin="round"/>
</svg>
