<svg width="28" height="21" viewBox="0 0 28 21" fill="none" xmlns="http://www.w3.org/2000/svg">
<g clip-path="url(#clip0_699_566)">
<path d="M25.9264 2.92922H1.51105C0.715761 2.92922 0 2.31254 0 1.46461C0 0.616677 0.715761 0 1.51105 0H25.9264C26.8013 0 27.4375 0.693762 27.4375 1.46461C27.4375 2.23546 26.7217 2.92922 25.9264 2.92922Z" fill="#F5743F"/>
<path d="M25.9264 11.7939H1.51105C0.636232 11.7939 0 11.1001 0 10.3293C0 9.55845 0.715761 8.86469 1.51105 8.86469H25.9264C26.8013 8.86469 27.4375 9.55845 27.4375 10.3293C27.4375 11.1001 26.7217 11.7939 25.9264 11.7939Z" fill="#F5743F"/>
<path d="M25.9264 20.6591H1.51105C0.715761 20.6591 0 20.0424 0 19.1945C0 18.3465 0.715761 17.7299 1.51105 17.7299H25.9264C26.8013 17.7299 27.4375 18.4236 27.4375 19.1945C27.4375 19.9653 26.7217 20.6591 25.9264 20.6591Z" fill="#F5743F"/>
</g>
<defs>
<clipPath id="clip0_699_566">
<rect width="27.4375" height="20.6587" fill="white"/>
</clipPath>
</defs>
</svg>
