<svg width="37" height="37" viewBox="0 0 37 37" fill="none" xmlns="http://www.w3.org/2000/svg">
<path d="M4.625 4.625H7.70833L8.325 7.70833M8.325 7.70833H32.375L26.2083 20.0417H10.7917M8.325 7.70833L10.7917 20.0417M10.7917 20.0417L7.25662 23.5767C6.28537 24.548 6.97296 26.2083 8.34658 26.2083H26.2083M26.2083 26.2083C25.3906 26.2083 24.6063 26.5332 24.0281 27.1114C23.4499 27.6897 23.125 28.4739 23.125 29.2917C23.125 30.1094 23.4499 30.8937 24.0281 31.4719C24.6063 32.0501 25.3906 32.375 26.2083 32.375C27.0261 32.375 27.8103 32.0501 28.3886 31.4719C28.9668 30.8937 29.2917 30.1094 29.2917 29.2917C29.2917 28.4739 28.9668 27.6897 28.3886 27.1114C27.8103 26.5332 27.0261 26.2083 26.2083 26.2083ZM13.875 29.2917C13.875 30.1094 13.5501 30.8937 12.9719 31.4719C12.3937 32.0501 11.6094 32.375 10.7917 32.375C9.97392 32.375 9.18966 32.0501 8.61142 31.4719C8.03318 30.8937 7.70833 30.1094 7.70833 29.2917C7.70833 28.4739 8.03318 27.6897 8.61142 27.1114C9.18966 26.5332 9.97392 26.2083 10.7917 26.2083C11.6094 26.2083 12.3937 26.5332 12.9719 27.1114C13.5501 27.6897 13.875 28.4739 13.875 29.2917Z" stroke="#232323" stroke-width="2" stroke-linecap="round" stroke-linejoin="round"/>
</svg>
