<svg width="30" height="30" viewBox="0 0 30 30" fill="none" xmlns="http://www.w3.org/2000/svg">
<circle cx="15" cy="15" r="15" fill="white"/>
<path d="M14.44 20C14.3333 20 14.2427 19.9627 14.168 19.888C14.0933 19.8133 14.056 19.7227 14.056 19.616V12.064C14.056 11.9573 14.0933 11.8667 14.168 11.792C14.2427 11.7173 14.3333 11.68 14.44 11.68H15.768C15.8853 11.68 15.976 11.7173 16.04 11.792C16.1147 11.8667 16.152 11.9573 16.152 12.064V19.616C16.152 19.7227 16.1147 19.8133 16.04 19.888C15.976 19.9627 15.8853 20 15.768 20H14.44ZM14.376 10.304C14.2587 10.304 14.1627 10.272 14.088 10.208C14.024 10.1333 13.992 10.0373 13.992 9.92V8.768C13.992 8.66133 14.024 8.57067 14.088 8.496C14.1627 8.42133 14.2587 8.384 14.376 8.384H15.832C15.9493 8.384 16.0453 8.42133 16.12 8.496C16.1947 8.57067 16.232 8.66133 16.232 8.768V9.92C16.232 10.0373 16.1947 10.1333 16.12 10.208C16.0453 10.272 15.9493 10.304 15.832 10.304H14.376Z" fill="#46AE40"/>
</svg>
