<svg width="16" height="16" viewBox="0 0 16 16" fill="none" xmlns="http://www.w3.org/2000/svg">
<path d="M12.6844 9.46384C12.1562 8.91387 11.4697 8.91387 10.9196 9.46384C10.5059 9.87742 10.0966 10.2866 9.68287 10.7002C9.56844 10.8146 9.47602 10.8366 9.33959 10.7706C9.08873 10.6122 8.78946 10.4978 8.5386 10.335C7.34592 9.57823 6.33809 8.61469 5.44468 7.51916C5.00898 6.96919 4.62169 6.39722 4.34443 5.73286C4.30042 5.59647 4.30042 5.52607 4.41484 5.41168C4.85054 5.0201 5.23783 4.61093 5.65153 4.19735C6.22366 3.62539 6.22366 2.96102 5.65153 2.38906C5.30825 2.04588 4.98697 1.7247 4.6657 1.40352C4.32242 1.06034 4.00114 0.717158 3.65787 0.395977C3.12974 -0.131992 2.44318 -0.131992 1.89305 0.395977C1.47936 0.809552 1.07006 1.21873 0.656367 1.6323C0.264676 2.02388 0.0622287 2.48145 0.0138174 3.00502C-0.056599 3.85417 0.150249 4.67692 0.449519 5.47768C1.07006 7.14958 2.00748 8.59269 3.12974 9.94341C4.6657 11.7781 6.49653 13.2212 8.63102 14.2508C9.59485 14.7083 10.5807 15.0735 11.6325 15.1439C12.3895 15.1879 13.032 14.9855 13.5558 14.4091C13.899 13.9956 14.3127 13.6524 14.678 13.2652C15.2282 12.6932 15.2282 12.0069 14.678 11.4569C14.0135 10.7926 13.3489 10.1282 12.6844 9.46384Z" fill="#232323"/>
</svg>
