<svg width="92" height="68" viewBox="0 0 92 68" fill="none" xmlns="http://www.w3.org/2000/svg">
<path d="M0 15.0369C0 7.69143 5.6756 1.59886 13.0091 1.18073C22.6962 0.628408 35.9304 0 46 0C56.0696 0 69.3038 0.628408 78.9909 1.18073C86.3244 1.59886 92 7.69143 92 15.0369V52.9637C92 60.3089 86.3248 66.4013 78.9915 66.8195C69.3077 67.3718 56.0774 68 46 68C35.9226 68 22.6923 67.3718 13.0085 66.8195C5.67518 66.4013 0 60.3089 0 52.9637V15.0369Z" fill="#D9D9D9"/>
<path d="M0 15.0369C0 7.69143 5.6756 1.59886 13.0091 1.18073C22.6962 0.628408 35.9304 0 46 0C56.0696 0 69.3038 0.628408 78.9909 1.18073C86.3244 1.59886 92 7.69143 92 15.0369V52.9637C92 60.3089 86.3248 66.4013 78.9915 66.8195C69.3077 67.3718 56.0774 68 46 68C35.9226 68 22.6923 67.3718 13.0085 66.8195C5.67518 66.4013 0 60.3089 0 52.9637V15.0369Z" fill="#F5743F"/>
<path d="M57 34.5L41.25 43.5933L41.25 25.4067L57 34.5Z" fill="white"/>
</svg>
