<svg width="34" height="34" viewBox="0 0 34 34" fill="none" xmlns="http://www.w3.org/2000/svg">
<path d="M17 34C26.3888 34 34 26.3888 34 17C34 7.61116 26.3888 0 17 0C7.61116 0 0 7.61116 0 17C0 26.3888 7.61116 34 17 34Z" fill="#039BE5"/>
<path d="M7.77953 16.6315L24.1704 10.3117C24.9311 10.0369 25.5955 10.4973 25.349 11.6476L25.3504 11.6462L22.5596 24.7943C22.3528 25.7265 21.7989 25.9531 21.0239 25.514L16.7739 22.3817L14.724 24.3566C14.4974 24.5832 14.3061 24.7745 13.8669 24.7745L14.1687 20.4494L22.0454 13.3335C22.3882 13.0317 21.9689 12.8617 21.5169 13.1621L11.783 19.2906L7.58687 17.9816C6.67595 17.6926 6.65612 17.0706 7.77953 16.6315Z" fill="white"/>
</svg>
