<svg width="34" height="34" viewBox="0 0 34 34" fill="none" xmlns="http://www.w3.org/2000/svg">
<circle cx="17" cy="17" r="17" fill="#64D05D"/>
<path d="M17.0025 7.55566H16.9977C11.7903 7.55566 7.55566 11.7915 7.55566 17.0001C7.55566 19.0661 8.2215 20.9809 9.35365 22.5357L8.17664 26.0443L11.8068 24.8839C13.3002 25.8732 15.0817 26.4446 17.0025 26.4446C22.2099 26.4446 26.4446 22.2075 26.4446 17.0001C26.4446 11.7927 22.2099 7.55566 17.0025 7.55566Z" fill="white"/>
<path d="M22.4638 20.4558C22.2329 21.0394 21.3166 21.5234 20.5857 21.6647C20.0857 21.76 19.4326 21.836 17.2339 21.0201C14.4216 19.9772 12.6106 17.4191 12.4694 17.2532C12.3342 17.0872 11.333 15.8987 11.333 14.6694C11.333 13.4402 12.0304 12.8416 12.3115 12.5847C12.5424 12.3737 12.924 12.2773 13.29 12.2773C13.4084 12.2773 13.5149 12.2827 13.6106 12.287C13.8917 12.2977 14.0329 12.3127 14.2183 12.7099C14.4491 13.2078 15.0114 14.4371 15.0783 14.5634C15.1465 14.6898 15.2147 14.8611 15.119 15.0271C15.0293 15.1984 14.9504 15.2744 14.8092 15.42C14.668 15.5657 14.5341 15.677 14.3929 15.8333C14.2637 15.9693 14.1178 16.115 14.2805 16.3666C14.4432 16.6129 15.0054 17.4341 15.8332 18.0937C16.9014 18.945 17.7674 19.217 18.0773 19.3326C18.3081 19.4183 18.5833 19.3979 18.7519 19.2373C18.966 19.0306 19.2304 18.688 19.4996 18.3507C19.6909 18.1087 19.9326 18.0787 20.1862 18.1644C20.4446 18.2447 21.8118 18.8497 22.0929 18.975C22.3741 19.1013 22.5595 19.1613 22.6276 19.2673C22.6946 19.3733 22.6946 19.8712 22.4638 20.4558Z" fill="#64D05D"/>
</svg>
