<svg width="71" height="71" viewBox="0 0 71 71" fill="none" xmlns="http://www.w3.org/2000/svg">
<circle opacity="0.7" cx="35.5" cy="35.5" r="35.5" fill="white"/>
<path d="M32.9167 32.9167H29.0417M47.125 47.125L39.375 39.375L47.125 47.125ZM41.9583 32.9167C41.9583 34.104 41.7245 35.2798 41.2701 36.3768C40.8157 37.4737 40.1497 38.4705 39.3101 39.3101C38.4705 40.1497 37.4737 40.8157 36.3768 41.2701C35.2798 41.7245 34.104 41.9583 32.9167 41.9583C31.7293 41.9583 30.5536 41.7245 29.4566 41.2701C28.3596 40.8157 27.3628 40.1497 26.5232 39.3101C25.6836 38.4705 25.0176 37.4737 24.5633 36.3768C24.1089 35.2798 23.875 34.104 23.875 32.9167C23.875 30.5187 24.8276 28.2189 26.5232 26.5232C28.2189 24.8276 30.5187 23.875 32.9167 23.875C35.3147 23.875 37.6144 24.8276 39.3101 26.5232C41.0057 28.2189 41.9583 30.5187 41.9583 32.9167ZM32.9167 29.0417V32.9167V29.0417ZM32.9167 32.9167V36.7917V32.9167ZM32.9167 32.9167H36.7917H32.9167Z" stroke="#46AE40" stroke-linecap="round" stroke-linejoin="round"/>
</svg>
